<svg xmlns="http://www.w3.org/2000/svg" viewBox="0 0 37 7">
  <path d="M0,0 v7h4v-2h1v-2h1v4h8v-2h5v2h9v-3h1v3h5 l3,-7 h-18v2h-3v-2" fill="#03A9F4" shape-rendering="crispEdges" />

  <path d="M1,1 v5h2v-2h1v-1h-1v-1h2v-1 h.5v1h1.5v4h2v-4h1.5v-1h.5v5h2v-2h2v-3 m-2,1h1v1h-1"  fill="#fff" shape-rendering="crispEdges" />
  <path d="M16,3 v1h3v-1" fill="#fff" shape-rendering="crispEdges" />
  <path d="M20,1 v3h2v1h-2v1h4v-3h-2v-1h2v-1 h1v5h2v-4h1v1h1v-2 h1v5h3v-1h-1v-4 m1,5 l2,-5 h-1 l-2,5" fill="#fff" shape-rendering="crispEdges" />
</svg>